<svg width="39" height="39" viewBox="0 0 39 39" fill="none" xmlns="http://www.w3.org/2000/svg">
<path d="M34.125 2.4375H21.9375C20.5664 2.4375 19.5 3.58008 19.5 4.875V34.125C19.5 35.4961 20.5664 36.5625 21.9375 36.5625H34.125C35.4199 36.5625 36.5625 35.4961 36.5625 34.125V4.875C36.5625 3.58008 35.4199 2.4375 34.125 2.4375ZM21.9375 0H34.125C36.791 0 39 2.20898 39 4.875V34.125C39 36.8672 36.791 39 34.125 39H21.9375C19.1953 39 17.0625 36.8672 17.0625 34.125V4.875C17.0625 2.20898 19.1953 0 21.9375 0ZM14.625 9.75V12.1875H4.875C3.50391 12.1875 2.4375 13.3301 2.4375 14.625V34.125C2.4375 35.4961 3.50391 36.5625 4.875 36.5625H15.0059C15.3105 37.4766 15.8438 38.3145 16.4531 39H4.875C2.13281 39 0 36.8672 0 34.125V14.625C0 11.959 2.13281 9.75 4.875 9.75H14.625ZM6.70312 24.375H10.3594C11.3496 24.375 12.1875 25.2129 12.1875 26.2031V29.8594C12.1875 30.9258 11.3496 31.6875 10.3594 31.6875H6.70312C5.63672 31.6875 4.875 30.9258 4.875 29.8594V26.2031C4.875 25.2129 5.63672 24.375 6.70312 24.375ZM7.3125 29.25H9.75V26.8125H7.3125V29.25ZM24.375 29.8594V26.2031C24.375 25.2129 25.1367 24.375 26.2031 24.375H29.8594C30.8496 24.375 31.6875 25.2129 31.6875 26.2031V29.8594C31.6875 30.9258 30.8496 31.6875 29.8594 31.6875H26.2031C25.1367 31.6875 24.375 30.9258 24.375 29.8594ZM26.8125 29.25H29.25V26.8125H26.8125V29.25ZM6.70312 14.625H10.3594C11.3496 14.625 12.1875 15.4629 12.1875 16.4531V20.1094C12.1875 21.1758 11.3496 21.9375 10.3594 21.9375H6.70312C5.63672 21.9375 4.875 21.1758 4.875 20.1094V16.4531C4.875 15.4629 5.63672 14.625 6.70312 14.625ZM7.3125 19.5H9.75V17.0625H7.3125V19.5ZM24.375 6.70312C24.375 5.71289 25.1367 4.875 26.2031 4.875H29.8594C30.8496 4.875 31.6875 5.71289 31.6875 6.70312V10.3594C31.6875 11.4258 30.8496 12.1875 29.8594 12.1875H26.2031C25.1367 12.1875 24.375 11.4258 24.375 10.3594V6.70312ZM26.8125 7.3125V9.75H29.25V7.3125H26.8125ZM26.2031 21.9375C25.1367 21.9375 24.375 21.1758 24.375 20.1094V16.4531C24.375 15.4629 25.1367 14.625 26.2031 14.625H29.8594C30.8496 14.625 31.6875 15.4629 31.6875 16.4531V20.1094C31.6875 21.1758 30.8496 21.9375 29.8594 21.9375H26.2031ZM26.8125 17.0625V19.5H29.25V17.0625H26.8125Z" fill="#1470FF"/>
</svg>
