<svg width="39" height="39" viewBox="0 0 39 39" fill="none" xmlns="http://www.w3.org/2000/svg">
<path d="M36.5625 19.4619C36.5625 13.3682 33.2871 7.80762 28.0312 4.76074C22.6992 1.6377 16.2246 1.6377 10.9688 4.76074C5.63672 7.80762 2.4375 13.3682 2.4375 19.4619C2.4375 25.6318 5.63672 31.1924 10.9688 34.2393C16.2246 37.3623 22.6992 37.3623 28.0312 34.2393C33.2871 31.1924 36.5625 25.6318 36.5625 19.4619ZM0 19.4619C0 12.5303 3.65625 6.13184 9.75 2.62793C15.7676 -0.875977 23.1562 -0.875977 29.25 2.62793C35.2676 6.13184 39 12.5303 39 19.4619C39 26.4697 35.2676 32.8682 29.25 36.3721C23.1562 39.876 15.7676 39.876 9.75 36.3721C3.65625 32.8682 0 26.4697 0 19.4619ZM20.7188 9.10254V10.8545C21.709 10.9307 22.6992 11.2354 23.6895 11.54C23.8418 11.54 23.918 11.6162 24.0703 11.6162C24.6797 11.7686 25.0605 12.4541 24.9082 13.1396C24.7559 13.749 24.0703 14.1299 23.3848 13.9775C23.2324 13.9014 23.0039 13.9014 22.8516 13.8252C22.3184 13.6729 21.709 13.4443 21.0996 13.3682C19.6523 13.2158 18.3574 13.3682 17.3672 13.749C16.377 14.2061 15.9199 14.8154 15.8438 15.2725C15.6914 16.0342 15.9961 16.4912 16.6055 16.9482C17.4434 17.4053 18.6621 17.7861 20.1094 18.167V18.2432C21.4805 18.624 23.0801 19.0811 24.2988 19.8428C25.7461 20.833 26.3555 22.4326 26.0508 24.1846C25.7461 25.7842 24.6035 26.9268 23.1562 27.46C22.4707 27.7646 21.5566 27.9932 20.6426 27.9932V29.8213C20.6426 30.5068 20.1094 31.04 19.4238 31.04C18.8145 31.04 18.2051 30.5068 18.2051 29.8213V27.917C17.5957 27.7646 16.6055 27.46 15.7676 27.2314C15.2344 27.0791 14.7012 26.9268 14.168 26.7744C13.5586 26.5459 13.1777 25.8604 13.4062 25.1748C13.6348 24.5654 14.3203 24.2607 14.9297 24.4131C15.4629 24.5654 15.9199 24.7939 16.4531 24.9463C17.291 25.1748 18.2051 25.4033 18.5859 25.4795C20.1094 25.708 21.4043 25.5557 22.2422 25.251C23.0801 24.8701 23.5371 24.3369 23.6895 23.7275C23.7656 22.8896 23.5371 22.2803 22.8516 21.8232C21.9375 21.2139 20.8711 20.9092 19.7285 20.6045C19.5762 20.6045 19.4238 20.5283 19.2715 20.4521C17.9004 20.1475 16.4531 19.6904 15.3105 18.9287C14.7012 18.5479 14.0918 18.0146 13.7109 17.3291C13.3301 16.5674 13.2539 15.7295 13.4062 14.8154C13.7109 13.2158 14.9297 12.1494 16.377 11.54C16.9102 11.3115 17.5957 11.083 18.2051 11.0068V9.10254C18.2051 8.49316 18.7383 7.88379 19.4238 7.88379C20.1094 7.88379 20.6426 8.49316 20.6426 9.10254H20.7188Z" fill="#1470FF"/>
</svg>
