<svg width="145" height="33" viewBox="0 0 145 33" fill="none" xmlns="http://www.w3.org/2000/svg">
<path d="M31.8262 24.777L26.2886 22.3418L24.638 23.0674L30.1071 25.4734L16.1375 31.618L2.16778 25.4734L7.63693 23.0674L5.98631 22.3418L0.45004 24.777C0.277608 24.8542 0.139398 24.9927 0.0630542 25.1685C-0.102797 25.5533 0.0696356 26.0006 0.45004 26.1697L15.8373 32.9388C15.9334 32.9814 16.0348 33.0027 16.1375 33.0027C16.2401 33.0027 16.3415 32.9814 16.4376 32.9388L31.8249 26.1697C31.9973 26.0925 32.1355 25.954 32.2119 25.7783C32.3777 25.3935 32.2053 24.9461 31.8249 24.777H31.8262Z" fill="#5B9BFF"/>
<path d="M31.8262 16.1091L26.1372 13.6073L23.6613 14.6964L28.4565 16.8054L16.1375 22.2244L3.8184 16.8041L8.6136 14.6951L6.13768 13.606L0.45004 16.1091C0.277608 16.1863 0.139398 16.3248 0.0630542 16.5005C-0.102797 16.8853 0.0696356 17.3327 0.45004 17.5018L15.8373 24.2709C15.9334 24.3135 16.0348 24.3348 16.1375 24.3348C16.2401 24.3348 16.3415 24.3135 16.4376 24.2709L31.8249 17.5018C31.9973 17.4246 32.1355 17.2861 32.2119 17.1103C32.3777 16.7255 32.2053 16.2782 31.8249 16.1091H31.8262Z" fill="#438DFF"/>
<path d="M16.1393 2.83466L26.8077 7.52802L16.1393 12.2214L5.4695 7.52802L16.1393 2.83466ZM16.1393 0C16.0366 0 15.9352 0.0213032 15.8392 0.0639096L0.450529 6.83167C0.278096 6.9089 0.139887 7.04737 0.0635424 7.22312C-0.102309 7.60791 0.0701239 8.05527 0.450529 8.22437L15.8378 14.9935C15.9339 15.0361 16.0353 15.0574 16.1379 15.0574C16.2406 15.0574 16.342 15.0361 16.4381 14.9935L31.8254 8.22437C31.9978 8.14714 32.136 8.00867 32.2123 7.83292C32.3782 7.44813 32.2058 7.00077 31.8254 6.83167L16.4394 0.0639096C16.3433 0.0213032 16.2419 0 16.1393 0Z" fill="#1470FF"/>
<path d="M78.4422 19.8563H78.3474L75.778 12.564H71.8042L75.9044 22.5911L77.2431 22.0971L76.2822 24.1822L74.1353 29.3163H78.1092L84.963 12.564H80.9892L78.4422 19.8563Z" fill="#0E2B56"/>
<path d="M52.9194 14.2243L50.5633 13.8395C48.6126 13.5266 48.0413 13.0207 48.0413 12.1299C48.0413 11.0222 48.8271 10.3724 50.6344 10.3724C52.4416 10.3724 53.2998 11.0222 53.3709 12.4668H57.2026C57.0605 8.9531 54.8228 6.95459 50.6107 6.95459C46.3986 6.95459 44.1622 8.97706 44.1622 12.106C44.1622 14.7782 45.6852 16.4385 48.9456 16.9684L51.3017 17.3532C52.8721 17.6182 53.5144 18.2919 53.5144 19.2066C53.5144 20.3144 52.6575 21.012 50.8252 21.012C48.993 21.012 48.0887 20.3623 47.9215 18.8937H44.0898C44.2807 22.4074 46.6118 24.4299 50.8476 24.4299C55.0834 24.4299 57.3922 22.5525 57.3922 19.0628C57.3922 16.3906 55.9877 14.7303 52.9181 14.2243H52.9194Z" fill="#0E2B56"/>
<path d="M96.7277 7.26758H83.5215V10.8785H87.0228L88.1745 9.71345V10.8785H88.1851V24.1171H92.0641V10.8785H96.7277V7.26758Z" fill="#0E2B56"/>
<path d="M66.6719 12.5641L62.5322 16.6556V7.26758H58.915V24.1171H62.5322V20.9163L63.6734 19.8085L66.8864 24.1171H71.0985L66.0532 17.4984L71.0985 12.5641H66.6719Z" fill="#0E2B56"/>
<path d="M145 18.3398C145 14.7289 142.478 12.2498 138.932 12.2498C135.386 12.2498 132.769 14.8727 132.769 18.3877C132.769 21.9028 135.267 24.4299 139.028 24.4299C142.192 24.4299 144.263 22.6484 144.787 20.3383H141.36C141.098 21.1092 140.338 21.5899 139.075 21.5899C137.552 21.5899 136.648 20.8922 136.386 19.3517H144.905C144.976 19.0149 145 18.678 145 18.3411V18.3398ZM136.457 17.0882C136.767 15.7169 137.671 15.0897 139.003 15.0897C140.264 15.0897 141.05 15.6436 141.335 17.0882H136.457Z" fill="#0E2B56"/>
<path d="M99.7225 13.8581V12.4761H96.5371V24.057H100.207V16.0896H104.412V12.4761H101.089L99.7225 13.8581Z" fill="#0E2B56"/>
<path d="M127.685 13.8369H127.614C126.948 12.6812 125.711 12.1034 124.259 12.1034C121.166 12.1034 118.904 14.6544 118.904 18.1934C118.904 21.7324 121.164 24.2835 124.306 24.2835C125.782 24.2835 127.019 23.7056 127.661 22.5499H127.756L127.898 23.9706H131.301V7.12109H127.684V13.8369H127.685ZM125.187 20.9629C123.593 20.9629 122.593 19.7832 122.593 18.1948C122.593 16.6063 123.592 15.4506 125.187 15.4506C126.782 15.4506 127.805 16.6063 127.805 18.1948C127.805 19.7832 126.806 20.9629 125.187 20.9629Z" fill="#0E2B56"/>
<path d="M114.2 13.9833H114.105C113.463 12.8276 112.225 12.2498 110.726 12.2498C107.609 12.2498 105.324 14.8008 105.324 18.3398C105.324 21.8788 107.609 24.4299 110.726 24.4299C112.225 24.4299 113.463 23.852 114.105 22.6963H114.2L114.342 24.117H117.697V12.5626H114.342L114.2 13.9833ZM111.629 21.1079C110.035 21.1079 109.035 19.9282 109.035 18.3398C109.035 16.7514 110.034 15.5957 111.629 15.5957C113.225 15.5957 114.247 16.7514 114.247 18.3398C114.247 19.9282 113.248 21.1079 111.629 21.1079Z" fill="#0E2B56"/>
</svg>
