<svg width="17" height="16" viewBox="0 0 17 16" fill="none" xmlns="http://www.w3.org/2000/svg">
<path d="M11.7642 6.96875C11.7642 5.29883 10.856 3.77539 9.42041 2.92578C7.95557 2.07617 6.16846 2.07617 4.73291 2.92578C3.26807 3.77539 2.38916 5.29883 2.38916 6.96875C2.38916 8.66797 3.26807 10.1914 4.73291 11.041C6.16846 11.8906 7.95557 11.8906 9.42041 11.041C10.856 10.1914 11.7642 8.66797 11.7642 6.96875ZM10.856 11.7734C9.80127 12.5938 8.48291 13.0625 7.07666 13.0625C3.70752 13.0625 0.98291 10.3379 0.98291 6.96875C0.98291 3.62891 3.70752 0.875 7.07666 0.875C10.4165 0.875 13.1704 3.62891 13.1704 6.96875C13.1704 8.4043 12.6724 9.72266 11.8521 10.7773L15.7778 14.6738C16.0415 14.9668 16.0415 15.4062 15.7778 15.6699C15.4849 15.9629 15.0454 15.9629 14.7817 15.6699L10.856 11.7734Z" fill="#1470FF"/>
</svg>
